HIERARCHY
ROOT Junyuan_V1:Solving:Hips
{
	OFFSET 0.000000 0.000000 0.000000
	CHANNELS 6 Xposition Yposition Zposition Xrotation Yrotation Zrotation
	JOINT Junyuan_V1:Solving:Spine
	{
		OFFSET 0.000000 -12.985630 2.462989
		CHANNELS 6 Xposition Yposition Zposition Xrotation Yrotation Zrotation
		JOINT Junyuan_V1:Solving:Spine1
		{
			OFFSET 0.000000 -8.692390 1.532706
			CHANNELS 6 Xposition Yposition Zposition Xrotation Yrotation Zrotation
			JOINT Junyuan_V1:Solving:Spine2
			{
				OFFSET 0.000000 -8.792902 0.769282
				CHANNELS 6 Xposition Yposition Zposition Xrotation Yrotation Zrotation
				JOINT Junyuan_V1:Solving:Spine3
				{
					OFFSET 0.000000 -8.826483 0.000000
					CHANNELS 6 Xposition Yposition Zposition Xrotation Yrotation Zrotation
					JOINT Junyuan_V1:Solving:Neck
					{
						OFFSET 0.000000 -11.348343 -1.134832
						CHANNELS 6 Xposition Yposition Zposition Xrotation Yrotation Zrotation
						JOINT Junyuan_V1:Solving:Neck1
						{
							OFFSET 0.000000 -7.624485 -0.667056
							CHANNELS 6 Xposition Yposition Zposition Xrotation Yrotation Zrotation
							JOINT Junyuan_V1:Solving:Head
							{
								OFFSET 0.000000 -7.537346 -1.329035
								CHANNELS 6 Xposition Yposition Zposition Xrotation Yrotation Zrotation
								JOINT Junyuan_V1:Solving:HeadEnd
								{
									OFFSET 0.000000 -9.728073 0.000003
									CHANNELS 6 Xposition Yposition Zposition Xrotation Yrotation Zrotation
									End Site
									{
										OFFSET 0.000000 -9.728081 0.000002
									}
								}
							}
						}
					}
					JOINT Junyuan_V1:Solving:RightShoulder
					{
						OFFSET 0.000000 -8.105961 -5.517343
						CHANNELS 6 Xposition Yposition Zposition Xrotation Yrotation Zrotation
						JOINT Junyuan_V1:Solving:RightArm
						{
							OFFSET -18.898018 -0.000008 0.000000
							CHANNELS 6 Xposition Yposition Zposition Xrotation Yrotation Zrotation
							JOINT Junyuan_V1:Solving:RightForeArm
							{
								OFFSET -28.740982 -0.000008 0.000000
								CHANNELS 6 Xposition Yposition Zposition Xrotation Yrotation Zrotation
								JOINT Junyuan_V1:Solving:RightHand
								{
									OFFSET -20.953522 -0.000008 0.000000
									CHANNELS 6 Xposition Yposition Zposition Xrotation Yrotation Zrotation
									JOINT Junyuan_V1:Solving:RightHandThumb1
									{
										OFFSET -4.628059 2.916191 -3.441377
										CHANNELS 6 Xposition Yposition Zposition Xrotation Yrotation Zrotation
										End Site
										{
											OFFSET -6.617699 -0.000004 -6.678891
										}
									}
									JOINT Junyuan_V1:Solving:RightHandMiddle1
									{
										OFFSET -12.341492 -0.000004 0.079112
										CHANNELS 6 Xposition Yposition Zposition Xrotation Yrotation Zrotation
										End Site
										{
											OFFSET -9.402214 -0.000004 0.000000
										}
									}
								}
							}
						}
					}
					JOINT Junyuan_V1:Solving:LeftShoulder
					{
						OFFSET 0.000000 -8.105961 -5.517343
						CHANNELS 6 Xposition Yposition Zposition Xrotation Yrotation Zrotation
						JOINT Junyuan_V1:Solving:LeftArm
						{
							OFFSET 18.898018 -0.000008 0.000000
							CHANNELS 6 Xposition Yposition Zposition Xrotation Yrotation Zrotation
							JOINT Junyuan_V1:Solving:LeftForeArm
							{
								OFFSET 28.740982 -0.000008 0.000000
								CHANNELS 6 Xposition Yposition Zposition Xrotation Yrotation Zrotation
								JOINT Junyuan_V1:Solving:LeftHand
								{
									OFFSET 20.953522 -0.000008 0.000000
									CHANNELS 6 Xposition Yposition Zposition Xrotation Yrotation Zrotation
									JOINT Junyuan_V1:Solving:LeftHandThumb1
									{
										OFFSET 4.628059 2.916191 -3.441377
										CHANNELS 6 Xposition Yposition Zposition Xrotation Yrotation Zrotation
										End Site
										{
											OFFSET 6.617699 -0.000004 -6.678891
										}
									}
									JOINT Junyuan_V1:Solving:LeftHandMiddle1
									{
										OFFSET 12.341492 -0.000004 0.079112
										CHANNELS 6 Xposition Yposition Zposition Xrotation Yrotation Zrotation
										End Site
										{
											OFFSET 9.402214 -0.000004 0.000000
										}
									}
								}
							}
						}
					}
				}
			}
		}
	}
	JOINT Junyuan_V1:Solving:RightUpLeg
	{
		OFFSET -11.141669 0.000000 0.000000
		CHANNELS 6 Xposition Yposition Zposition Xrotation Yrotation Zrotation
		JOINT Junyuan_V1:Solving:RightLeg
		{
			OFFSET 0.000000 42.399242 -0.000006
			CHANNELS 6 Xposition Yposition Zposition Xrotation Yrotation Zrotation
			JOINT Junyuan_V1:Solving:RightFoot
			{
				OFFSET 0.000000 39.245022 -0.000006
				CHANNELS 6 Xposition Yposition Zposition Xrotation Yrotation Zrotation
				JOINT Junyuan_V1:Solving:RightForeFoot
				{
					OFFSET 0.000000 3.261009 -0.000000
					CHANNELS 6 Xposition Yposition Zposition Xrotation Yrotation Zrotation
					JOINT Junyuan_V1:Solving:RightToeBase
					{
						OFFSET 0.000000 0.000000 -12.771147
						CHANNELS 6 Xposition Yposition Zposition Xrotation Yrotation Zrotation
						JOINT Junyuan_V1:Solving:RightToeBaseEnd
						{
							OFFSET 0.000000 0.000000 -4.049008
							CHANNELS 6 Xposition Yposition Zposition Xrotation Yrotation Zrotation
							End Site
							{
								OFFSET 0.000000 -4.049011 0.000000
							}
						}
					}
				}
			}
		}
	}
	JOINT Junyuan_V1:Solving:LeftUpLeg
	{
		OFFSET 11.141669 0.000000 0.000000
		CHANNELS 6 Xposition Yposition Zposition Xrotation Yrotation Zrotation
		JOINT Junyuan_V1:Solving:LeftLeg
		{
			OFFSET 0.000000 42.399242 -0.000006
			CHANNELS 6 Xposition Yposition Zposition Xrotation Yrotation Zrotation
			JOINT Junyuan_V1:Solving:LeftFoot
			{
				OFFSET 0.000000 39.245022 -0.000006
				CHANNELS 6 Xposition Yposition Zposition Xrotation Yrotation Zrotation
				JOINT Junyuan_V1:Solving:LeftForeFoot
				{
					OFFSET 0.000000 3.261009 -0.000000
					CHANNELS 6 Xposition Yposition Zposition Xrotation Yrotation Zrotation
					JOINT Junyuan_V1:Solving:LeftToeBase
					{
						OFFSET 0.000000 0.000000 -12.771147
						CHANNELS 6 Xposition Yposition Zposition Xrotation Yrotation Zrotation
						JOINT Junyuan_V1:Solving:LeftToeBaseEnd
						{
							OFFSET 0.000000 0.000000 -2.960146
							CHANNELS 6 Xposition Yposition Zposition Xrotation Yrotation Zrotation
							End Site
							{
								OFFSET 0.000000 -2.960144 0.000002
							}
						}
					}
				}
			}
		}
	}
}
MOTION
Frames: 5
Frame Time: 0.041667
11.813360 7.588655 -86.843536 -101.336634 13.315822 -177.892386 0.000000 -12.985620 2.462990 14.505683 0.660670 1.162932 0.000000 -8.692390 1.532706 2.312734 -0.014460 0.634391 0.000001 -8.792911 0.769282 -0.796205 7.353771 -0.216359 -0.000003 -8.826480 0.000009 1.757393 1.842489 -1.943451 -0.000001 -11.348350 -1.134823 -0.197675 3.467175 3.687337 0.000004 -7.624462 -0.667060 -2.641157 -1.614559 -2.565231 -0.000003 -7.537327 -1.329036 -0.567283 0.424974 -2.611829 0.000001 -9.728050 0.000004 0.000001 -0.000000 0.000000 -0.000001 -8.105965 -5.517335 -0.000013 15.499620 16.508118 -18.898022 -0.000005 0.000002 7.943840 -31.464021 -86.420341 -28.740955 -0.000003 0.000032 -0.793801 -57.996851 -0.673183 -20.953543 0.000001 -0.000001 2.445610 -14.234624 9.853552 -4.628072 2.916198 -3.441386 0.000004 0.000003 -0.000006 -12.341496 -0.000013 0.079103 -0.000001 -0.000006 0.000004 0.000003 -8.105949 -5.517342 -0.000006 -7.230910 -17.277170 18.898016 0.000010 0.000007 -45.989381 34.333503 108.036319 28.741018 -0.000010 0.000003 34.507133 58.906721 -30.485115 20.953531 -0.000008 -0.000002 0.128639 0.377685 -18.809004 4.628067 2.916202 -3.441374 0.000001 -0.000003 0.000009 12.341458 -0.000010 0.079092 0.000005 -0.000001 0.000006 -11.141670 0.000002 0.000003 -36.153062 2.139963 5.786095 -0.000007 42.399239 -0.000016 23.755478 -0.000001 -0.000001 0.000002 39.245041 -0.000009 4.908214 -11.677291 -9.550834 -0.000001 3.261009 0.000000 0.000000 -0.000002 -0.000001 -0.000001 0.000006 -12.771152 13.046476 0.000007 -0.000001 -0.000007 -0.000007 -4.049016 0.000001 0.000001 -0.000001 11.141671 0.000008 -0.000002 -10.808143 -10.062480 4.268501 -0.000000 42.399242 -0.000014 18.439564 -0.000007 0.000001 -0.000000 39.245018 -0.000002 -10.511134 -8.391397 -2.610205 0.000002 3.261017 -0.000003 -0.000001 0.000003 0.000000 -0.000003 0.000015 -12.771138 -16.786016 -0.000007 0.000001 -0.000000 0.000008 -2.960143 0.000001 -0.000004 -0.000001 
11.814256 7.585742 -86.842949 -101.351285 13.325271 -177.878644 0.000001 -12.985636 2.462991 14.499163 0.659547 1.159662 -0.000001 -8.692371 1.532704 2.310923 -0.014350 0.632822 -0.000001 -8.792895 0.769270 -0.792865 7.352390 -0.216159 0.000000 -8.826500 0.000009 1.761352 1.841475 -1.946905 0.000000 -11.348307 -1.134844 -0.202830 3.466366 3.684689 -0.000002 -7.624460 -0.667073 -2.639303 -1.638954 -2.553233 -0.000000 -7.537345 -1.329034 -0.548991 0.422021 -2.607667 -0.000000 -9.728088 0.000008 0.000003 0.000000 -0.000000 -0.000002 -8.105946 -5.517350 -0.000003 15.501251 16.507626 -18.898016 0.000002 0.000008 7.938210 -31.488497 -86.451303 -28.740982 -0.000004 -0.000003 -0.725609 -57.982330 -0.615259 -20.953531 0.000008 0.000003 2.443050 -14.249599 9.833482 -4.628052 2.916202 -3.441370 0.000001 0.000002 -0.000000 -12.341475 0.000013 0.079104 -0.000001 0.000000 0.000001 0.000000 -8.105946 -5.517350 -0.000002 -7.234860 -17.279687 18.898016 -0.000008 -0.000002 -46.017003 34.349124 108.062745 28.741003 -0.000012 0.000009 34.492015 58.894583 -30.467760 20.953527 0.000002 -0.000019 0.131591 0.386299 -18.810049 4.628067 2.916196 -3.441358 0.000006 0.000000 0.000009 12.341475 -0.000007 0.079118 0.000003 -0.000003 -0.000001 -11.141667 -0.000022 0.000003 -36.160428 2.135717 5.779065 0.000004 42.399223 -0.000006 23.755439 0.000001 0.000000 -0.000002 39.245033 -0.000005 4.894968 -11.656362 -9.564348 -0.000000 3.261002 -0.000002 -0.000001 -0.000004 0.000000 -0.000002 0.000004 -12.771152 13.096225 -0.000002 0.000000 0.000003 0.000002 -4.049009 0.000005 0.000001 -0.000001 11.141669 0.000001 -0.000004 -10.817508 -10.041552 4.262285 0.000000 42.399254 -0.000013 18.429018 0.000000 -0.000002 -0.000002 39.245022 0.000002 -10.515854 -8.409025 -2.585199 0.000001 3.261009 -0.000001 -0.000001 0.000005 0.000000 -0.000000 0.000015 -12.771141 -16.801603 -0.000005 0.000000 -0.000001 0.000000 -2.960145 0.000001 -0.000000 -0.000000 
11.815125 7.583006 -86.843086 -101.368525 13.333044 -177.865052 0.000003 -12.985622 2.462989 14.489999 0.657158 1.157485 -0.000001 -8.692407 1.532704 2.308721 -0.014387 0.631684 -0.000003 -8.792902 0.769279 -0.792481 7.350901 -0.218705 0.000002 -8.826484 0.000014 1.767356 1.840656 -1.952136 0.000001 -11.348290 -1.134836 -0.219119 3.455276 3.691303 0.000000 -7.624518 -0.667051 -2.620324 -1.658102 -2.542847 0.000002 -7.537339 -1.329051 -0.534225 0.420334 -2.608093 -0.000001 -9.728058 -0.000013 0.000006 -0.000000 0.000000 -0.000003 -8.105942 -5.517333 -0.000004 15.500211 16.512660 -18.898014 -0.000019 -0.000015 7.926631 -31.581651 -86.456801 -28.740978 0.000008 0.000009 -0.843762 -57.948636 -0.715176 -20.953529 -0.000002 -0.000004 2.460008 -14.290299 9.873424 -4.628039 2.916206 -3.441375 0.000005 0.000007 -0.000003 -12.341447 0.000003 0.079104 0.000003 0.000001 -0.000001 -0.000004 -8.105938 -5.517333 0.000002 -7.235158 -17.275391 18.898020 -0.000003 -0.000000 -46.037036 34.362347 108.084226 28.741014 -0.000002 0.000008 34.497848 58.879598 -30.469272 20.953524 -0.000001 0.000004 0.133000 0.390350 -18.814782 4.628072 2.916207 -3.441356 -0.000004 0.000000 -0.000003 12.341466 -0.000006 0.079119 -0.000004 -0.000001 -0.000003 -11.141664 0.000023 -0.000001 -36.171217 2.134413 5.773192 -0.000004 42.399220 -0.000016 23.753497 -0.000003 -0.000001 -0.000005 39.245007 -0.000008 4.895581 -11.649507 -9.567153 -0.000006 3.261002 -0.000001 -0.000000 -0.000001 -0.000001 0.000001 0.000001 -12.771144 13.074041 -0.000001 -0.000000 0.000005 -0.000007 -4.049011 -0.000000 -0.000000 -0.000000 11.141669 0.000003 0.000001 -10.828984 -10.020714 4.258070 -0.000000 42.399254 -0.000010 18.416020 -0.000007 0.000001 -0.000000 39.245033 -0.000003 -10.504680 -8.425915 -2.564527 0.000006 3.261009 0.000002 -0.000000 0.000002 -0.000000 -0.000000 0.000011 -12.771140 -16.841559 -0.000005 0.000000 -0.000000 -0.000007 -2.960142 0.000001 -0.000004 -0.000001 
11.817605 7.571230 -86.844398 -101.353908 13.334408 -177.855558 -0.000000 -12.985610 2.462990 14.505162 0.647473 1.157632 0.000001 -8.692377 1.532700 2.310657 -0.015644 0.631747 0.000000 -8.792930 0.769291 -0.785023 7.348158 -0.224291 0.000000 -8.826488 0.000010 1.770012 1.838655 -1.956863 0.000002 -11.348351 -1.134828 -0.204290 3.453419 3.694812 -0.000001 -7.624461 -0.667049 -2.640869 -1.667843 -2.536350 0.000001 -7.537361 -1.329023 -0.525433 0.417864 -2.600069 0.000001 -9.728043 0.000013 -0.000003 -0.000000 0.000000 0.000000 -8.105961 -5.517346 -0.000003 15.500452 16.510278 -18.898010 -0.000010 -0.000006 7.924827 -31.617933 -86.471103 -28.740980 -0.000005 0.000009 -0.873349 -57.938937 -0.740181 -20.953558 0.000004 0.000004 2.456796 -14.281692 9.866469 -4.628073 2.916200 -3.441372 -0.000003 0.000002 0.000002 -12.341484 0.000012 0.079104 -0.000001 0.000000 0.000001 0.000000 -8.105961 -5.517345 0.000005 -7.232538 -17.268841 18.898026 0.000003 0.000009 -46.054647 34.374798 108.098515 28.740980 -0.000012 -0.000001 34.477115 58.874789 -30.448580 20.953524 -0.000002 -0.000009 0.135113 0.396900 -18.798762 4.628050 2.916196 -3.441367 -0.000000 -0.000003 -0.000003 12.341466 -0.000003 0.079127 -0.000000 0.000001 0.000006 -11.141668 0.000017 0.000000 -36.125663 2.114972 5.754684 -0.000004 42.399261 -0.000012 23.716592 -0.000002 -0.000002 -0.000007 39.245022 -0.000005 4.882869 -11.626072 -9.596861 -0.000000 3.261009 0.000000 -0.000001 -0.000001 0.000001 -0.000001 0.000003 -12.771144 13.063613 0.000003 -0.000001 0.000004 0.000001 -4.049008 0.000003 0.000002 0.000000 11.141666 0.000011 0.000000 -10.800173 -10.012097 4.246948 0.000001 42.399227 -0.000013 18.396199 -0.000000 -0.000000 -0.000003 39.244995 -0.000005 -10.503111 -8.444387 -2.531588 0.000000 3.261017 -0.000004 -0.000001 -0.000001 0.000001 -0.000000 -0.000006 -12.771146 -16.858058 -0.000001 -0.000001 -0.000001 0.000001 -2.960145 0.000002 -0.000001 0.000001 
11.820328 7.564860 -86.844841 -101.355991 13.338149 -177.847498 0.000002 -12.985633 2.462990 14.510611 0.645462 1.158297 0.000000 -8.692406 1.532714 2.312595 -0.015538 0.629956 -0.000000 -8.792910 0.769273 -0.787550 7.342867 -0.217039 -0.000004 -8.826509 0.000006 1.777116 1.838712 -1.966467 0.000001 -11.348356 -1.134851 -0.217423 3.447101 3.697708 0.000001 -7.624482 -0.667043 -2.615136 -1.678699 -2.528120 -0.000000 -7.537354 -1.329042 -0.540369 0.414902 -2.589945 0.000000 -9.728081 0.000001 0.000001 -0.000000 0.000000 0.000001 -8.105980 -5.517357 -0.000008 15.502463 16.508793 -18.898018 0.000020 0.000001 7.916772 -31.636582 -86.494626 -28.740982 -0.000012 0.000001 -0.887938 -57.925120 -0.752426 -20.953545 -0.000004 0.000004 2.449996 -14.286980 9.836152 -4.628046 2.916198 -3.441382 0.000004 -0.000000 -0.000002 -12.341469 -0.000006 0.079108 0.000001 0.000001 0.000000 0.000001 -8.105995 -5.517348 0.000007 -7.232208 -17.270857 18.898012 0.000002 0.000010 -46.070302 34.386563 108.110399 28.740997 -0.000003 0.000001 34.474055 58.875022 -30.445783 20.953522 -0.000005 0.000004 0.131511 0.386695 -18.783348 4.628086 2.916200 -3.441355 -0.000001 0.000000 0.000004 12.341481 -0.000002 0.079129 -0.000002 -0.000001 -0.000003 -11.141666 0.000005 0.000000 -36.111313 2.109670 5.746344 0.000006 42.399212 -0.000006 23.698830 -0.000002 -0.000002 -0.000003 39.245029 -0.000009 4.871408 -11.611965 -9.617950 0.000002 3.261009 0.000001 -0.000000 -0.000001 -0.000000 -0.000002 0.000026 -12.771147 13.074084 -0.000001 0.000002 0.000004 0.000008 -4.049011 0.000001 0.000001 0.000000 11.141672 -0.000008 0.000001 -10.794321 -9.998433 4.241188 -0.000002 42.399246 -0.000013 18.385992 0.000001 -0.000000 0.000001 39.245010 -0.000001 -10.499163 -8.462869 -2.503608 0.000000 3.261009 -0.000000 -0.000001 0.000001 -0.000000 0.000003 -0.000011 -12.771142 -16.878934 0.000003 0.000002 0.000000 -0.000000 -2.960148 -0.000001 -0.000004 -0.000000 
